#!OML:ASF H:\Punching\Project 1\Capture day 1\Session 1\female.ASF
:FULLY-SPECIFIED
:DEGREES
2241
root 3.24722 15.6016 7.09105 16.747 -10.6973 -5.71116
lowerback -3.16587 1.26561 3.04055
upperback -5.78408 1.69427 0.859954
thorax -4.13481 0.73493 -0.819985
lowerneck -7.55695 6.49284 15.9867
upperneck 22.1803 8.3162 -8.40986
head 9.25354 4.43195 -4.67137
rclavicle 6.22072e-014 5.96354e-015
rhumerus -50.7208 -14.0639 -71.5548
rradius 31.805
rwrist -1.76547
rhand -1.90794 -7.72952
rfingers 7.12502
rthumb 23.7617 -36.2803
lclavicle 6.22072e-014 5.96354e-015
lhumerus -51.5792 7.17649 80.6289
lradius 39.5572
lwrist 3.84448
lhand -1.68416 18.9412
lfingers 7.12502
lthumb 23.9763 47.4639
rfemur -19.8063 3.19128 20.3308
rtibia 27.5567
rfoot -18.2567 -19.1528
rtoes -2.08046
lfemur -17.6999 -5.50644 -18.7189
ltibia 30.2291
lfoot -27.2004 28.5837
ltoes 4.54311
2242
root 3.25367 15.6042 7.07789 16.8872 -11.0866 -5.81873
lowerback -3.26909 1.29157 3.17313
upperback -5.80832 1.7237 0.858538
thorax -4.09788 0.744065 -0.893257
lowerneck -7.51089 6.56147 16.0435
upperneck 21.9562 8.43933 -8.58208
head 9.19319 4.47518 -4.72418
rclavicle -3.0091e-014 -1.35174e-014
rhumerus -50.7171 -13.9044 -71.8
rradius 31.6208
rwrist -1.49611
rhand -1.10551 -7.81419
rfingers 7.12502
rthumb 24.5311 -36.2629
lclavicle -3.0091e-014 -1.35174e-014
lhumerus -51.9603 7.12273 81.2521
lradius 40.0265
lwrist 3.89412
lhand -0.472048 19.0378
lfingers 7.12502
lthumb 25.1382 47.4027
rfemur -19.6106 4.16876 20.3485
rtibia 26.7714
rfoot -18.1416 -20.0168
rtoes -1.34926
lfemur -17.8416 -5.41078 -18.6895
ltibia 30.2912
lfoot -27.3904 28.7762
ltoes 4.9176
2243
root 3.25896 15.6067 7.06489 17.0231 -11.4635 -5.91369
lowerback -3.37566 1.31145 3.28757
upperback -5.82738 1.74461 0.859343
thorax -4.05439 0.749927 -0.953895
lowerneck -7.47226 6.63309 16.0879
upperneck 21.7359 8.56544 -8.74699
head 9.13559 4.51963 -4.77177
rclavicle -1.63128e-014 8.74653e-015
rhumerus -50.6732 -13.7511 -72.026
rradius 31.4395
rwrist -1.28162
rhand -0.470769 -7.81178
rfingers 7.12502
rthumb 25.1394 -36.1765
lclavicle -1.63128e-014 8.74653e-015
lhumerus -52.2768 7.04608 81.8595
lradius 40.4991
lwrist 3.81054
lhand 0.79682 19.153
lfingers 7.12502
lthumb 26.3534 47.3419
rfemur -19.4743 5.21831 20.3133
rtibia 26.131
rfoot -18.0312 -20.8249
rtoes -0.853165
lfemur -17.9745 -5.311 -18.6689
ltibia 30.3407
lfoot -27.5792 28.9538
ltoes 5.30016
2244
root 3.26319 15.6086 7.05194 17.1544 -11.8242 -5.99064
lowerback -3.48708 1.32808 3.38191
upperback -5.84356 1.76068 0.857144
thorax -4.00568 0.75428 -1.00621
lowerneck -7.43693 6.7042 16.1302
upperneck 21.5201 8.68944 -8.90783
head 9.08008 4.56357 -4.81775
rclavicle 2.79789e-014 7.55382e-015
rhumerus -50.6024 -13.6044 -72.2381
rradius 31.2714
rwrist -1.13834
rhand -0.0627167 -7.73141
rfingers 7.12502
rthumb 25.5303 -36.0408
lclavicle 2.79789e-014 7.55382e-015
lhumerus -52.5248 6.93858 82.4416
lradius 40.9629
lwrist 3.63692
lhand 2.07548 19.2731
lfingers 7.12502
lthumb 27.5768 47.2728
rfemur -19.3946 6.31686 20.2213
rtibia 25.6047
rfoot -17.9302 -21.5898
rtoes -0.501819
lfemur -18.1038 -5.20946 -18.662
ltibia 30.3822
lfoot -27.7633 29.1161
ltoes 5.67333
2245
root 3.26639 15.6091 7.03917 17.2764 -12.1666 -6.04502
lowerback -3.60408 1.338 3.45348
upperback -5.85381 1.76725 0.851656
thorax -3.94845 0.754989 -1.04901
lowerneck -7.40425 6.77639 16.1679
upperneck 21.306 8.81387 -9.06458
head 9.02579 4.60797 -4.86138
rclavicle -4.09993e-015 -7.95139e-016
rhumerus -50.498 -13.4802 -72.4188
rradius 31.14
rwrist -0.947848
rhand 0.280963 -7.76959
rfingers 7.12502
rthumb 25.8595 -36.0314
lclavicle -4.09993e-015 -7.95139e-016
lhumerus -52.7063 6.80492 82.9915
lradius 41.4184
lwrist 3.40636
lhand 3.28772 19.3781
lfingers 7.12502
lthumb 28.7355 47.1871
rfemur -19.3642 7.41967 20.0769
rtibia 25.1759
rfoot -17.8375 -22.3042
rtoes -0.262872
lfemur -18.2259 -5.10639 -18.6741
ltibia 30.4163
lfoot -27.939 29.2603
ltoes 6.02605
2246
root 3.26879 15.6088 7.02636 17.3909 -12.4913 -6.07703
lowerback -3.72253 1.35046 3.50276
upperback -5.86716 1.77704 0.83697
thorax -3.89375 0.757991 -1.08883
lowerneck -7.36257 6.843 16.2166
upperneck 21.0996 8.92951 -9.21847
head 8.97217 4.65001 -4.90721
rclavicle -9.0944e-015 8.74653e-015
rhumerus -50.3831 -13.3707 -72.5839
rradius 31.0122
rwrist -0.784198
rhand 0.380514 -7.74829
rfingers 7.12502
rthumb 25.9548 -35.9962
lclavicle -9.0944e-015 8.74653e-015
lhumerus -52.829 6.63859 83.4889
lradius 41.8567
lwrist 3.12252
lhand 4.39385 19.4791
lfingers 7.12502
lthumb 29.7916 47.1039
rfemur -19.385 8.4652 19.8945
rtibia 24.8385
rfoot -17.7615 -22.9306
rtoes -0.110499
lfemur -18.3433 -5.00976 -18.7034
ltibia 30.4391
lfoot -28.1014 29.3875
ltoes 6.37196
